<?xml version="1.0" standalone="no"?>
<!DOCTYPE svg PUBLIC "-//W3C//DTD SVG 20010904//EN"
 "http://www.w3.org/TR/2001/REC-SVG-20010904/DTD/svg10.dtd">
<svg version="1.0" xmlns="http://www.w3.org/2000/svg"
 width="60.000000pt" height="60.000000pt" viewBox="0 0 60.000000 60.000000"
 preserveAspectRatio="xMidYMid meet">

<g transform="translate(0.000000,60.000000) scale(0.100000,-0.100000)"
fill="#000000" stroke="none">
<path d="M250 561 c-126 -26 -213 -133 -213 -261 0 -232 275 -350 446 -191
132 122 97 347 -68 429 -47 23 -116 33 -165 23z m176 -66 c71 -44 107 -117
102 -206 -5 -91 -42 -152 -118 -192 -48 -25 -64 -28 -121 -25 -91 5 -152 42
-192 118 -25 48 -28 64 -25 121 5 91 42 152 118 192 48 25 64 28 121 25 52 -3
77 -10 115 -33z"/>
<path d="M210 364 c-36 -30 -66 -58 -68 -62 -1 -4 29 -34 67 -65 l70 -57 3 52
3 51 62 -51 c34 -29 65 -52 68 -52 3 0 5 54 5 120 0 66 -2 120 -5 120 -3 0
-34 -23 -68 -52 l-62 -51 -5 50 -5 51 -65 -54z"/>
</g>
</svg>
