<?xml version="1.0" standalone="no"?>
<!DOCTYPE svg PUBLIC "-//W3C//DTD SVG 20010904//EN"
 "http://www.w3.org/TR/2001/REC-SVG-20010904/DTD/svg10.dtd">
<svg version="1.0" xmlns="http://www.w3.org/2000/svg"
 width="60.000000pt" height="60.000000pt" viewBox="0 0 60.000000 60.000000"
 preserveAspectRatio="xMidYMid meet">

<g transform="translate(0.000000,60.000000) scale(0.100000,-0.100000)"
fill="#000000" stroke="none">
<path d="M220 556 c-123 -33 -198 -129 -200 -252 -1 -152 114 -269 264 -267
74 1 120 19 176 69 64 58 85 105 85 194 0 89 -21 136 -85 194 -70 63 -156 85
-240 62z m192 -61 c23 -17 56 -52 72 -79 43 -69 43 -163 0 -232 -45 -73 -100
-107 -180 -112 -85 -6 -141 16 -192 73 -81 92 -83 214 -3 306 51 60 100 80
188 77 61 -3 78 -8 115 -33z"/>
<path d="M150 300 c0 -94 3 -120 13 -114 6 4 39 27 72 51 l60 44 5 -51 5 -51
68 56 c37 31 67 60 67 65 0 5 -30 34 -67 65 l-68 56 -5 -51 -5 -51 -60 44
c-33 24 -66 47 -72 51 -10 6 -13 -20 -13 -114z"/>
</g>
</svg>
