<?xml version="1.0" standalone="no"?>
<!DOCTYPE svg PUBLIC "-//W3C//DTD SVG 20010904//EN"
 "http://www.w3.org/TR/2001/REC-SVG-20010904/DTD/svg10.dtd">
<svg version="1.0" xmlns="http://www.w3.org/2000/svg"
 width="60.000000pt" height="60.000000pt" viewBox="0 0 60.000000 60.000000"
 preserveAspectRatio="xMidYMid meet">

<g transform="translate(0.000000,60.000000) scale(0.100000,-0.100000)"
fill="#000000" stroke="none">
<path d="M205 582 c-65 -22 -109 -54 -146 -105 -87 -120 -74 -283 31 -387 117
-118 303 -118 420 0 222 221 -10 594 -305 492z m205 -33 c171 -77 215 -302 87
-438 -103 -108 -291 -108 -394 0 -101 107 -97 286 8 386 77 73 205 95 299 52z"/>
<path d="M200 295 c0 -85 2 -155 4 -155 11 0 266 154 266 160 0 9 -244 150
-259 150 -8 0 -11 -49 -11 -155z m158 47 c34 -20 62 -39 62 -42 0 -5 -38 -29
-152 -95 l-48 -27 0 122 0 122 38 -22 c20 -12 65 -39 100 -58z"/>
</g>
</svg>
